<?xml version="1.0" encoding="utf-8"?>
<!-- Generator: Adobe Illustrator 18.1.1, SVG Export Plug-In . SVG Version: 6.00 Build 0)  -->
<svg version="1.1" id="Layer_1" xmlns="http://www.w3.org/2000/svg" xmlns:xlink="http://www.w3.org/1999/xlink" x="0px" y="0px"
	 viewBox="0 0 409.5 102.4" enable-background="new 0 0 409.5 102.4" xml:space="preserve">
<circle fill="#FFFFFF" cx="45.6" cy="50.5" r="28.5"/>
<g>
	<g>
		<path fill="#DB466B" d="M16.9,79l69.5-38.6l-4.3,21.1L78,76.7c-1,3.9-4.1,7-8,8l-30.8,8.2c-3.9,1-8.2,0-11.1-2.9L16.9,79z"/>
		<path fill="#A62670" d="M82.3,61.3l-68.1-41l20.1-6.8l15.6-4.1c3.9-1,8.2,0,11.1,2.9l22.6,22.6c2.9,2.9,4.1,7.2,2.9,11.1
			L82.3,61.3z"/>
		<path fill="#F96C48" d="M34.3,13.6l-0.4,18.7L33.3,70l-16.2,9L5.6,67.7c-2.9-2.9-4.1-7.2-2.9-11.1L11,25.9c1-3.9,4.1-7,8-8
			L34.3,13.6z"/>
	</g>
	<g>
		<path fill="#333333" d="M102.8,25h11.7v52.1h-11.7V25z"/>
		<path fill="#333333" d="M163.4,31.8c4.9,4.5,7.4,10.9,7.4,18.9s-2.5,14.6-7.2,19.3c-4.9,4.7-12.3,7-22.2,7h-17.8V25H142
			C151.3,25,158.4,27.3,163.4,31.8z M154.7,62.8c2.9-2.7,4.3-6.6,4.3-11.7s-1.4-9-4.3-11.7c-2.9-2.7-7.2-4.1-13.1-4.1h-6.6v31.6h7.4
			C148,66.7,152.1,65.4,154.7,62.8z"/>
		<path fill="#333333" d="M197.8,35.1v42.1h-11.7V35.1h-14.8V25h41v10.1H197.8z"/>
		<path fill="#333333" d="M231.1,63.6c1.8,2.5,4.5,3.7,7.8,3.7s5.9-1.2,7.8-3.7c1.8-2.5,2.9-5.7,2.9-9.8V25h11.7v29.1
			c0,7.6-2.1,13.3-6.2,17.4c-4.1,4.1-9.4,6.2-16,6.2c-6.6,0-11.9-2.1-16-6.2c-4.1-4.1-6.4-9.8-6.4-17.4V25h11.7v28.7
			C228.2,57.9,229.2,61.1,231.1,63.6z"/>
		<path fill="#333333" d="M292.2,76.9h-22.8V25h20.3c3.5,0,6.6,0.4,9,1.2c2.5,0.8,4.5,2.1,5.7,3.5c2.3,2.7,3.5,5.7,3.5,9
			c0,4.1-1.2,7.2-3.9,9c-0.8,0.6-1.4,1.2-1.8,1.2c-0.4,0.2-1,0.4-1.8,0.8c3.3,0.6,5.7,2.1,7.8,4.3c1.8,2.3,2.9,4.9,2.9,8.2
			c0,3.7-1.2,6.8-3.7,9.6C304.3,75.5,299.4,76.9,292.2,76.9z M281.1,46.2h5.5c3.3,0,5.5-0.4,7.2-1c1.6-0.6,2.3-2.3,2.3-4.5
			s-0.8-3.9-2.3-4.5c-1.4-0.8-3.9-1-7.4-1h-5.5v11.1H281.1z M281.1,67.3h8c3.3,0,5.7-0.4,7.4-1.2c1.6-0.8,2.5-2.5,2.5-4.9
			c0-2.5-0.8-3.9-2.7-4.7c-1.8-0.8-4.5-1.2-8.4-1.2h-6.8L281.1,67.3L281.1,67.3z"/>
		<path fill="#333333" d="M354.5,25v10.3h-25.8V46h23.4v9.8h-23.4v10.9h26.7v10.3H317V25H354.5z"/>
		<path fill="#333333" d="M404,42.3c0,8.4-3.3,13.7-9.8,16.2l13.1,18.7h-14.4l-11.5-16.6h-8v16.6h-11.7V25h19.7
			c8,0,13.9,1.4,17.2,4.1C402.3,31.8,404,36.3,404,42.3z M390,48.4c1.4-1.2,2.3-3.3,2.3-6.2c0-2.9-0.8-4.7-2.3-5.7
			c-1.4-1-4.1-1.6-7.8-1.6h-8.6v15.4h8.4C385.9,50.5,388.6,49.9,390,48.4z"/>
	</g>
</g>
</svg>
