<?xml version="1.0" encoding="utf-8"?>
<!-- Generator: Adobe Illustrator 18.1.1, SVG Export Plug-In . SVG Version: 6.00 Build 0)  -->
<svg version="1.1" id="Layer_1" xmlns="http://www.w3.org/2000/svg" xmlns:xlink="http://www.w3.org/1999/xlink" x="0px" y="0px"
	 viewBox="43.7 373.6 912.7 255.1" enable-background="new 43.7 373.6 912.7 255.1" xml:space="preserve">
<g>
	<g>
		<polygon fill="#F96C48" points="43.7,467.4 77.5,594.9 128.9,568.3 128.9,503.2 128.9,438.1 137.5,373.6 		"/>
		<polygon fill="#A62670" points="265,407.4 137.5,373.6 128.8,438.1 184.6,470.6 240.8,503.2 298.8,534.9 		"/>
		<polygon fill="#DB466B" points="240.8,503.2 184.8,535.7 128.8,568.3 77.4,594.9 205,628.6 298.8,534.9 		"/>
	</g>
	<g>
		<path fill="#434343" d="M327.2,464.8c0-2,0.7-3.6,2-5c1.3-1.3,3-2,5-2s3.6,0.7,5,2c1.4,1.3,2.1,3,2.1,5V540c0,2-0.7,3.6-2.1,5
			c-1.4,1.3-3,2-5,2s-3.6-0.7-5-2c-1.3-1.3-2-3-2-5V464.8z"/>
		<path fill="#434343" d="M368.5,487.1V540c0,1.9-0.7,3.5-2,4.9s-3,2.1-4.9,2.1c-1.9,0-3.5-0.7-4.9-2c-1.3-1.3-2-3-2-5v-74.1
			c-0.2-2.4,0.6-4.3,2.5-5.6c1.8-1.2,3.7-1.8,5.5-1.5s3.4,1.2,4.5,2.7l41.1,56.9v-52.4c0-1.9,0.7-3.5,2-4.8c1.3-1.3,3-2,4.8-2
			c1.9,0,3.5,0.7,4.9,2s2.1,3,2.1,4.8V540c0,2-0.7,3.6-2.1,5c-1.4,1.3-3,2-5,2s-3.7-0.9-5.1-2.6c-0.3-0.3-0.5-0.6-0.6-0.8
			L368.5,487.1z"/>
		<path fill="#434343" d="M436.8,540v-75.2c0-2,0.7-3.6,2-5c1.3-1.3,3-2,5-2h15c12.3,0,22.8,4.4,31.5,13c8.7,8.7,13,19.2,13,31.5
			c0,12.3-4.3,22.8-13,31.5c-8.7,8.8-19.2,13.2-31.5,13.2h-15c-2,0-3.6-0.7-5-2C437.5,543.6,436.8,541.9,436.8,540z M450.9,472v60.9
			h7.9c8.4-0.1,15.5-3,21.5-9c5.9-5.9,8.8-13,8.8-21.5s-3-15.5-8.8-21.5c-5.9-5.9-13-8.9-21.5-8.9H450.9z"/>
		<path fill="#434343" d="M523.8,533.5c-8.4-9-12.7-19.8-12.7-32.3s4.2-23.4,12.7-32.3s18.8-13.5,30.9-13.5s22.4,4.5,30.9,13.7
			s12.7,19.9,12.7,32.3s-4.3,23.1-12.9,32.1c-3.8,4.2-8.4,7.6-13.8,10c-5.3,2.4-10.9,3.6-16.6,3.6
			C542.7,547,532.3,542.5,523.8,533.5z M525.6,501.1c0,8.6,2.8,15.9,8.5,22.1s12.6,9.2,20.5,9.2c8,0,14.8-3.1,20.5-9.4
			s8.4-13.6,8.4-22c0-8.4-2.8-15.7-8.4-22s-12.4-9.4-20.5-9.4s-15,3-20.6,9.2C528.4,485.2,525.6,492.5,525.6,501.1z"/>
		<path fill="#434343" d="M666.9,459.9c1.3,1.3,2,3,2,5s-0.7,3.6-2.1,5s-3,2.1-4.9,2.1h-20.2v68c0,2-0.7,3.6-2,5c-1.3,1.4-3,2-5,2
			s-3.6-0.7-5-2c-1.3-1.3-2-3-2-5v-68h-20.1c-2,0-3.6-0.7-5-2.1c-1.3-1.4-2-3-2-5s0.7-3.6,2-5c1.3-1.3,3-2,5-2h54.4
			C663.8,457.9,665.5,458.6,666.9,459.9z"/>
		<path fill="#434343" d="M750.3,510.2c0,10.1-3.6,18.8-10.8,25.9c-7.2,7.2-15.9,10.9-26,10.9s-18.8-3.6-26-10.8s-10.8-15.9-10.8-26
			v-45.3c0-2,0.7-3.6,2-5c1.3-1.3,3-2,5-2s3.6,0.7,5,2c1.4,1.3,2.1,3,2.1,5v45.3c0,6.2,2.2,11.5,6.6,16c4.4,4.5,9.8,6.7,16,6.7
			s11.6-2.2,16-6.6c4.4-4.4,6.6-9.8,6.6-16V465c0-2,0.7-3.6,2.1-5c1.4-1.3,3-2,5-2s3.6,0.7,5,2c1.3,1.3,2,3,2,5L750.3,510.2
			L750.3,510.2z"/>
		<path fill="#434343" d="M769.2,547l-0.2-0.2c-0.1,0-0.2,0.1-0.4,0.2c-2,0-3.6-0.7-5-2c-1.4-1.3-2-3-2-5v-75.2c0-2,0.7-3.6,2-5
			c1.3-1.3,3-2,5-2h18c6.7,0,12.4,2.3,17.1,7c4.7,4.7,7,10.1,7,16.1s-1.6,11.2-4.8,15.5c3.9,2.5,7,5.7,9.4,9.8s3.5,8.5,3.5,13.2
			c0,7.6-2.7,14-8,19.4c-5.3,5.3-11.7,8-19.3,8h-22.4V547z M775.9,472v20.3h10.9c2.8,0,5.2-1,7.1-3s3-4.5,3-7.3s-1-5.2-3-7.1
			s-4.3-2.9-7.1-2.9H775.9z M775.9,506.4v26.3h15.9c3.7-0.1,6.7-1.4,9.3-3.9c2.6-2.6,3.8-5.6,3.8-9.3s-1.2-6.7-3.8-9.2
			c-2.6-2.5-5.6-3.8-9.3-3.9H775.9z"/>
		<path fill="#434343" d="M836.4,547c-2,0-3.6-0.7-5-2c-1.4-1.3-2-3-2-5v-75.2c0-2,0.7-3.6,2-5c1.3-1.3,3-2,5-2H878
			c1.9,0,3.5,0.7,4.9,2s2.1,3,2.1,5s-0.7,3.6-2.1,5c-1.4,1.4-3,2.1-4.9,2.1h-34.5v23.3h29.7c1.9,0,3.5,0.7,4.9,2.1
			c1.4,1.4,2.1,3,2.1,5c0,1.9-0.7,3.6-2,5c-1.3,1.4-3,2.1-5,2.1h-29.7v23.4H878c1.9,0,3.5,0.7,4.9,2.1s2.1,3,2.1,5s-0.7,3.6-2.1,5
			c-1.4,1.4-3,2.1-4.9,2.1h-41.3L836.4,547L836.4,547z"/>
		<path fill="#434343" d="M942.3,506.1c5.8,4.5,8.7,10.5,8.7,18.4c-0.1,2.8,0.1,5.3,0.5,7.5c2.2,0.7,3.7,2.1,4.5,4.4s0.4,4.4-1,6.3
			c-1.5,2-3.5,2.9-6.2,2.9h-0.2c-3.8,0-6.8-2-9.1-5.9c-1.8-3.8-2.7-8.8-2.7-15.3c-0.2-3.9-2-7-5.3-9.1c-2.2-1.4-4.6-2.4-7.1-3h-15
			V540c0,2-0.7,3.6-2.1,5c-1.4,1.3-3,2-5,2s-3.6-0.7-5-2c-1.4-1.3-2-3-2-5v-75.2c0-2,0.7-3.6,2-5c1.3-1.3,3-2,5-2h22.8
			c7.6,0,14,2.7,19.3,8c5.3,5.3,8,12,8,20C952.2,493.8,948.8,500.6,942.3,506.1z M924.9,498.2c3.7,0,6.7-1.2,9.3-3.8
			c2.6-2.6,3.8-5.6,3.8-9.2s-1.2-6.7-3.8-9.3c-2.6-2.6-5.6-3.9-9.3-3.9h-15.6v26.2H924.9z"/>
	</g>
</g>
</svg>
