<?xml version="1.0" encoding="utf-8"?>
<!-- Generator: Adobe Illustrator 18.1.1, SVG Export Plug-In . SVG Version: 6.00 Build 0)  -->
<svg version="1.1" id="Layer_1" xmlns="http://www.w3.org/2000/svg" xmlns:xlink="http://www.w3.org/1999/xlink" x="0px" y="0px"
	 viewBox="0 0 200 50" enable-background="new 0 0 200 50" xml:space="preserve">
<ellipse fill="#FFFFFF" cx="23" cy="25.5" rx="13.9" ry="14.4"/>
<g>
	<g>
		<path fill="#DB466B" d="M8.4,38.5l33.9-18.8l-2.1,10.3l-2,7.4c-0.5,1.9-2,3.4-3.9,3.9l-15,4c-1.9,0.5-4,0-5.4-1.4L8.4,38.5z"/>
		<path fill="#A62670" d="M40.3,29.9L7.1,9.9l9.8-3.3l7.6-2c1.9-0.5,4,0,5.4,1.4l11,11c1.4,1.4,2,3.5,1.4,5.4L40.3,29.9z"/>
		<path fill="#F96C48" d="M16.9,6.6l-0.2,9.1l-0.3,18.4l-7.9,4.4L2.9,33c-1.4-1.4-2-3.5-1.4-5.4l4-15c0.5-1.9,2-3.4,3.9-3.9
			L16.9,6.6z"/>
	</g>
	<g>
		<path fill="#FFFFFF" d="M50.3,12.2H56v25.4h-5.7V12.2z"/>
		<path fill="#FFFFFF" d="M79.8,15.5c2.4,2.2,3.6,5.3,3.6,9.2c0,3.9-1.2,7.1-3.5,9.4c-2.4,2.3-6,3.4-10.8,3.4h-8.7V12.2h9
			C73.9,12.2,77.4,13.3,79.8,15.5z M75.6,30.6c1.4-1.3,2.1-3.2,2.1-5.7c0-2.5-0.7-4.4-2.1-5.7c-1.4-1.3-3.5-2-6.4-2h-3.2v15.4h3.6
			C72.3,32.5,74.3,31.9,75.6,30.6z"/>
		<path fill="#FFFFFF" d="M96.6,17.1v20.5h-5.7V17.1h-7.2v-4.9h20v4.9H96.6z"/>
		<path fill="#FFFFFF" d="M112.8,31c0.9,1.2,2.2,1.8,3.8,1.8c1.6,0,2.9-0.6,3.8-1.8c0.9-1.2,1.4-2.8,1.4-4.8v-14h5.7v14.2
			c0,3.7-1,6.5-3,8.5c-2,2-4.6,3-7.8,3s-5.8-1-7.8-3c-2-2-3.1-4.8-3.1-8.5V12.2h5.7v14C111.4,28.2,111.9,29.8,112.8,31z"/>
		<path fill="#FFFFFF" d="M142.6,37.5h-11.1V12.2h9.9c1.7,0,3.2,0.2,4.4,0.6c1.2,0.4,2.2,1,2.8,1.7c1.1,1.3,1.7,2.8,1.7,4.4
			c0,2-0.6,3.5-1.9,4.4c-0.4,0.3-0.7,0.6-0.9,0.6c-0.2,0.1-0.5,0.2-0.9,0.4c1.6,0.3,2.8,1,3.8,2.1c0.9,1.1,1.4,2.4,1.4,4
			c0,1.8-0.6,3.3-1.8,4.7C148.5,36.8,146.1,37.5,142.6,37.5z M137.2,22.5h2.7c1.6,0,2.7-0.2,3.5-0.5c0.8-0.3,1.1-1.1,1.1-2.2
			c0-1.1-0.4-1.9-1.1-2.2c-0.7-0.4-1.9-0.5-3.6-0.5h-2.7V22.5z M137.2,32.8h3.9c1.6,0,2.8-0.2,3.6-0.6c0.8-0.4,1.2-1.2,1.2-2.4
			c0-1.2-0.4-1.9-1.3-2.3c-0.9-0.4-2.2-0.6-4.1-0.6h-3.3V32.8z"/>
		<path fill="#FFFFFF" d="M173,12.2v5h-12.6v5.2h11.4v4.8h-11.4v5.3h13v5h-18.7V12.2H173z"/>
		<path fill="#FFFFFF" d="M197.1,20.6c0,4.1-1.6,6.7-4.8,7.9l6.4,9.1h-7l-5.6-8.1h-3.9v8.1h-5.7V12.2h9.6c3.9,0,6.8,0.7,8.4,2
			C196.3,15.5,197.1,17.7,197.1,20.6z M190.3,23.6c0.7-0.6,1.1-1.6,1.1-3c0-1.4-0.4-2.3-1.1-2.8c-0.7-0.5-2-0.8-3.8-0.8h-4.2v7.5
			h4.1C188.3,24.6,189.6,24.3,190.3,23.6z"/>
	</g>
</g>
</svg>
